<?xml version="1.0" encoding="UTF-8"?>
<svg version="1.2"
     width="12.7mm"
     height="8.38mm"
     viewBox="0 0 1270 838"
     preserveAspectRatio="xMidYMid"
     fill-rule="evenodd"
     stroke-width="28.222"
     stroke-linejoin="round"
     xmlns="http://www.w3.org/2000/svg"
     xmlns:ooo="http://xml.openoffice.org/svg/export"
     xmlns:xlink="http://www.w3.org/1999/xlink"
     xmlns:presentation="http://sun.com/xmlns/staroffice/presentation"
     xmlns:smil="http://www.w3.org/2001/SMIL20/"
     xmlns:anim="urn:oasis:names:tc:opendocument:xmlns:animation:1.0"
     xml:space="preserve"
     role="img"
     aria-labelledby="logoTitle logoDesc">
     aria-describedby="logoDesc"

  <title id="logoTitle">SiteLogo</title>
  <desc id="logoDesc">Stylized initials C and M rendered in white on transparent background, representing the site identity</desc>
 <defs class="ClipPathGroup">
  <clipPath id="presentation_clip_path" clipPathUnits="userSpaceOnUse">
   <rect x="0" y="0" width="1270" height="838"/>
  </clipPath>
  <clipPath id="presentation_clip_path_shrink" clipPathUnits="userSpaceOnUse">
   <rect x="1" y="0" width="1268" height="837"/>
  </clipPath>
 </defs>
 <defs class="TextShapeIndex">
  <g ooo:slide="id1" ooo:id-list="id3 id4 id5"/>
 </defs>
 <defs class="EmbeddedBulletChars">
  <g id="bullet-char-template-57356" transform="scale(0.00048828125,-0.00048828125)">
   <path d="M 580,1141 L 1163,571 580,0 -4,571 580,1141 Z"/>
  </g>
  <g id="bullet-char-template-57354" transform="scale(0.00048828125,-0.00048828125)">
   <path d="M 8,1128 L 1137,1128 1137,0 8,0 8,1128 Z"/>
  </g>
  <g id="bullet-char-template-10146" transform="scale(0.00048828125,-0.00048828125)">
   <path d="M 174,0 L 602,739 174,1481 1456,739 174,0 Z M 1358,739 L 309,1346 659,739 1358,739 Z"/>
  </g>
  <g id="bullet-char-template-10132" transform="scale(0.00048828125,-0.00048828125)">
   <path d="M 2015,739 L 1276,0 717,0 1260,543 174,543 174,936 1260,936 717,1481 1274,1481 2015,739 Z"/>
  </g>
  <g id="bullet-char-template-10007" transform="scale(0.00048828125,-0.00048828125)">
   <path d="M 0,-2 C -7,14 -16,27 -25,37 L 356,567 C 262,823 215,952 215,954 215,979 228,992 255,992 264,992 276,990 289,987 310,991 331,999 354,1012 L 381,999 492,748 772,1049 836,1024 860,1049 C 881,1039 901,1025 922,1006 886,937 835,863 770,784 769,783 710,716 594,584 L 774,223 C 774,196 753,168 711,139 L 727,119 C 717,90 699,76 672,76 641,76 570,178 457,381 L 164,-76 C 142,-110 111,-127 72,-127 30,-127 9,-110 8,-76 1,-67 -2,-52 -2,-32 -2,-23 -1,-13 0,-2 Z"/>
  </g>
  <g id="bullet-char-template-10004" transform="scale(0.00048828125,-0.00048828125)">
   <path d="M 285,-33 C 182,-33 111,30 74,156 52,228 41,333 41,471 41,549 55,616 82,672 116,743 169,778 240,778 293,778 328,747 346,684 L 369,508 C 377,444 397,411 428,410 L 1163,1116 C 1174,1127 1196,1133 1229,1133 1271,1133 1292,1118 1292,1087 L 1292,965 C 1292,929 1282,901 1262,881 L 442,47 C 390,-6 338,-33 285,-33 Z"/>
  </g>
  <g id="bullet-char-template-9679" transform="scale(0.00048828125,-0.00048828125)">
   <path d="M 813,0 C 632,0 489,54 383,161 276,268 223,411 223,592 223,773 276,916 383,1023 489,1130 632,1184 813,1184 992,1184 1136,1130 1245,1023 1353,916 1407,772 1407,592 1407,412 1353,268 1245,161 1136,54 992,0 813,0 Z"/>
  </g>
  <g id="bullet-char-template-8226" transform="scale(0.00048828125,-0.00048828125)">
   <path d="M 346,457 C 273,457 209,483 155,535 101,586 74,649 74,723 74,796 101,859 155,911 209,963 273,989 346,989 419,989 480,963 531,910 582,859 608,796 608,723 608,648 583,586 532,535 482,483 420,457 346,457 Z"/>
  </g>
  <g id="bullet-char-template-8211" transform="scale(0.00048828125,-0.00048828125)">
   <path d="M -4,459 L 1135,459 1135,606 -4,606 -4,459 Z"/>
  </g>
  <g id="bullet-char-template-61548" transform="scale(0.00048828125,-0.00048828125)">
   <path d="M 173,740 C 173,903 231,1043 346,1159 462,1274 601,1332 765,1332 928,1332 1067,1274 1183,1159 1299,1043 1357,903 1357,740 1357,577 1299,437 1183,322 1067,206 928,148 765,148 601,148 462,206 346,322 231,437 173,577 173,740 Z"/>
  </g>
 </defs>
 <g>
  <g id="id2" class="Master_Slide">
   <g id="bg-id2" class="Background"/>
   <g id="bo-id2" class="BackgroundObjects"/>
  </g>
 </g>
 <g class="SlideGroup">
  <g>
   <g id="container-id1">
    <g id="id1" class="Slide" clip-path="url(#presentation_clip_path)">
     <g class="Page">
      <g class="Group">
       <g class="com.sun.star.drawing.ClosedBezierShape">
        <g id="id3">
         <rect class="BoundingBox" stroke="none" fill="none" x="-1" y="-1" width="1273" height="841"/>
         <path fill="none" stroke="rgb(52,101,164)" d="M 0,838 L 0,0 1270,0 1270,838 0,838 Z "/>
        </g>
       </g>
       <g class="com.sun.star.drawing.ClosedBezierShape">
        <g id="id4">
         <rect class="BoundingBox" stroke="none" fill="none" x="31" y="54" width="502" height="741"/>
         <path fill="rgb(255,255,255)" stroke="none" d="M 232,793 C 185,793 147,782 118,760 88,738 66,710 52,675 39,640 32,604 32,567 32,519 39,470 54,422 69,373 89,327 115,283 141,239 170,199 203,165 236,131 272,104 309,84 347,64 384,54 422,54 448,54 471,60 489,73 508,86 517,107 517,138 517,156 514,176 507,199 501,222 493,244 482,265 471,286 459,303 445,316 432,330 418,337 404,337 398,337 391,334 385,330 378,326 372,319 367,308 376,298 386,285 398,270 409,255 420,239 431,222 441,206 450,189 456,173 463,157 467,143 467,130 467,119 463,111 457,104 451,98 441,95 425,95 398,95 371,105 342,125 314,145 286,172 260,206 234,240 210,278 189,320 168,362 151,405 139,449 127,493 121,535 121,575 121,604 125,632 134,659 143,686 157,707 177,724 197,741 222,749 253,749 286,749 319,740 352,722 385,703 415,679 442,649 469,619 491,587 508,553 L 532,569 C 510,610 485,647 455,681 425,715 391,742 353,763 316,783 275,793 232,793 Z "/>
        </g>
       </g>
       <g class="com.sun.star.drawing.ClosedBezierShape">
        <g id="id5">
         <rect class="BoundingBox" stroke="none" fill="none" x="521" y="53" width="733" height="742"/>
         <path fill="rgb(255,255,255)" stroke="none" d="M 522,793 C 525,784 534,763 549,730 564,698 584,654 609,599 634,545 665,480 699,404 734,329 773,245 816,150 818,146 820,140 822,135 823,129 824,124 824,120 824,114 822,109 819,106 815,102 808,100 798,100 772,100 751,108 735,123 719,139 707,158 699,181 691,203 688,226 688,248 688,253 688,260 688,267 689,274 690,283 691,292 677,292 664,287 655,278 645,270 638,259 633,245 629,232 626,220 626,208 626,189 632,170 643,151 654,133 669,116 688,101 706,86 726,75 748,66 771,58 793,53 815,53 838,53 857,60 873,72 889,85 901,107 909,140 918,173 922,220 922,281 922,320 921,361 918,401 915,442 912,480 909,515 906,551 905,581 905,606 917,570 932,532 950,491 968,450 988,410 1008,370 1029,330 1050,292 1070,257 1090,221 1108,190 1124,164 1141,137 1153,117 1162,105 1170,91 1178,81 1185,74 1191,68 1200,64 1212,64 1221,64 1234,68 1252,74 1247,86 1240,104 1233,130 1226,155 1218,185 1209,218 1200,255 1191,295 1182,339 1173,383 1164,427 1157,471 1150,516 1144,558 1139,598 1135,638 1132,674 1132,704 1132,720 1133,733 1135,742 1136,751 1138,759 1141,766 1144,773 1147,782 1151,793 1124,793 1104,789 1091,781 1077,773 1068,761 1063,743 1058,726 1056,703 1056,674 1056,606 1064,535 1080,460 1095,385 1113,308 1134,228 1117,253 1099,282 1081,316 1063,349 1045,385 1027,422 1009,459 992,496 976,532 960,569 946,602 934,633 922,664 912,690 906,711 900,713 896,714 894,714 892,715 890,715 887,715 865,715 852,702 846,676 840,650 837,615 837,570 837,546 837,520 838,493 839,466 839,438 841,410 842,381 843,353 843,325 844,297 844,270 844,244 844,235 844,226 844,216 844,207 843,198 843,190 797,298 758,391 726,467 693,544 666,606 643,654 621,702 600,737 581,760 562,782 542,793 522,793 Z "/>
        </g>
       </g>
      </g>
     </g>
    </g>
   </g>
  </g>
 </g>
</svg>